Patient4_TMGait_0pt8_01_right_31_EMG.mot
version=1
nRows=33
nColumns=33
inDegrees=no
endheader
time	1LAddLong	2LGlutMax	3LGlutMed	4LIliopsoas	5LSemiMemb	6LBicFemLong	7LRecFem	8LVastMed	9LVastLat	10LGasMed	11LTibAnt	12lTibPost	13LPeroneusLong	14LSol	15LExtDigLong	16LFlexDigLong	17RAddLong	18RGlutMax	19RGlutMed	20RIliopsoas	21RSemiMemb	22RBicFemLong	23RRecFem	24RVastMed	25RVastLat	26RGasMed	27RTibAnt	28RTibPost	29RPeroneusLong	30RSol	31RExtDigLong	32RFlexDigLong
35.858	-0.003967	-0.066833	-0.076447	0.007019	-0.014954	0.29938	0.073853	-0.023651	-0.023193	-0.058746	0.12558	-0.013885	-0.15381	0.14023	0.4538	0.003967	0.001068	-0.046539	-0.21408	-0.009613	-0.064697	0.057526	0.015259	-0.027313	-0.001068	0.071716	0.36148	-0.006256	0.13184	-0.10452	-0.000305	0.007935
35.859	0.001984	-0.083771	-0.13367	0.018158	-0.006866	0.39536	0.012817	-0.015106	-0.02121	-0.059662	-0.21072	-0.007172	0.28336	0.33081	-0.5191	0.015717	0.013733	-0.052338	-0.13626	-0.010071	-0.074615	0.021667	0.003052	-0.041199	-0.010529	0.074158	0.57236	-0.002899	0.23499	-0.13306	-0.000763	0.006104
35.86	0.000458	-0.089874	-0.073547	0.005951	0.009155	-0.08255	0.031128	-0.006409	-0.005798	-0.043945	-0.10284	-0.007629	-0.011749	0.34683	-0.39017	0.009766	0.003204	-0.038147	-0.19211	-0.049438	-0.043335	-0.007782	0.035248	-0.008087	-0.001831	0.094147	-0.090485	-0.005035	0.44968	-0.21088	-0.001373	0.006409
35.861	0.005798	-0.12787	-0.096283	0.004578	0.028381	-0.34424	0.028381	-0.00473	0.024414	-0.006409	-0.28183	-0.012665	-0.5368	0.2507	-0.027771	-0.002441	0.022125	-0.029755	-0.22003	-0.005341	-0.052185	-0.030365	0.030823	-0.042114	0.002899	0.085754	-0.8876	-0.003357	0.40329	-0.20325	-0.001526	-0.000305
35.862	0.002441	-0.099182	-0.07019	0.002747	0.052185	-0.30975	0.043793	-0.003662	0.014954	-0.006409	-0.10132	-0.012054	-0.1683	0.020142	-0.2417	-0.007324	0.0354	-0.051422	0.024872	-0.039825	0.074158	-0.072479	0.023956	-0.060883	0.001373	0.067749	-0.028534	-0.006256	0.12405	-0.19669	-0.003052	0
35.863	0.002441	-0.070801	-0.09201	0.006104	0.042877	0.02533	-0.033264	0.011749	0.0177	-0.018005	0.045319	-0.014496	1.0014	-0.058441	-0.037231	-0.008087	0.061951	-0.09201	-0.1384	-0.088806	0.072021	-0.064087	0.038452	-0.036469	-0.01297	0.039368	0.35996	0.004425	-0.09964	-0.18997	-0.000305	-0.000153
35.864	0.010986	-0.08255	-0.16693	0.015259	0.018768	0.034637	-0.047302	0.009308	0.022583	0.064087	0.14267	-0.006409	0.054016	-0.06134	-0.21866	-0.015259	0.058441	-0.097046	-0.37613	-0.12161	0.13367	-0.048523	-0.010529	-0.055389	0.002747	0.024414	0.24551	-0.003815	-0.22629	-0.053101	-0.00412	0.005798
35.865	0.010834	-0.072021	-0.12009	0.00351	0.00473	0.27924	-0.039063	0.00885	0.005341	0.077972	0.093536	-0.007935	-0.14114	-0.16251	0.023956	-0.02182	0.037689	-0.099182	-0.35507	-0.033569	-0.036774	0.027771	-0.011292	-0.050049	0.015869	0.004578	0.22354	-0.009308	-0.31204	0.064392	-0.003357	0.001068
35.866	0.012512	-0.004578	-0.093231	0.009918	-0.005188	0.22934	0.019073	-0.011444	0.014038	0.027771	-0.045166	0.002899	0.094299	-0.1062	0.13397	-0.00412	-0.006256	-0.098114	-0.3447	0.020447	-0.3241	0.0737	-0.057526	-0.026703	0.024719	-0.012817	0.053406	-0.006256	-0.15747	0.11261	-0.001678	-0.000305
35.867	0.04715	0.012665	-0.13748	0.014648	0.006561	0.18616	0.004883	0.010986	0.000763	-0.04303	-0.12085	-0.007629	-0.26779	0.055695	0.13168	0.00061	-0.017242	-0.071259	-0.168	0.027771	-0.21729	0.015869	0.024567	-0.019836	0.002747	-0.014343	0.040436	-0.010376	-0.089417	0.11581	-0.007629	0.004578
35.868	0.037994	0.009766	-0.18662	0.019379	-0.002289	-0.04303	-0.001984	0.002136	-0.00946	-0.08728	-0.058289	-0.006104	0.30624	0.080566	-0.039673	0.002136	0.006409	-0.095062	-0.13214	0.06424	-0.22781	-0.061951	-0.027313	-0.041351	0.007935	-0.027924	0.014191	-0.00824	-0.056305	0.083923	-0.000153	0.000305
35.869	0.016785	0.040894	-0.15732	-0.003662	-0.010071	-0.33997	0.023346	0.009003	0.00824	-0.088501	-0.005798	-0.00946	-0.81696	-0.011292	-0.15717	0.003967	-0.015869	-0.08316	-0.06424	-0.00061	-0.10956	-0.043182	-0.02533	0.033875	0.032806	-0.0177	-0.017548	-0.00473	-0.070648	-0.033875	-0.005188	0.011597
35.87	0.040741	0.061188	-0.087891	0.006714	-0.015564	-0.037231	0.072174	0.010223	-0.018005	-0.021515	0.02533	-0.004883	0.16739	-0.10971	-0.14313	-0.000153	-0.001068	-0.04364	-0.000458	0.001831	0.20584	-0.087738	-0.016632	0.04425	0.025787	-0.023346	-0.061951	-0.005798	0.036469	-0.093536	-0.009155	0.015411
35.871	0.002899	0.058441	-0.023804	0.005951	-0.025024	0.054321	0.08316	0.013123	-0.03418	0.045319	-0.054016	-0.010834	0.31143	-0.22492	-0.18433	-0.017395	0.020905	-0.087891	-0.10757	-0.011749	0.002289	-0.028687	-0.04837	0.071869	0.036163	-0.040436	0.0177	-0.006714	0.050049	-0.077972	-0.005035	0.011292
35.872	-0.010681	0.046539	-0.16419	0.018005	0.016632	0.019989	0.10086	0.007782	-0.071259	0.048981	-0.048523	-0.00946	-0.19318	-0.15915	-0.012054	-0.002441	0.031891	-0.1268	-0.32822	0.009613	-0.14404	0.12711	-0.061798	0.01709	0.039978	-0.053864	0.19348	-0.005188	0.054169	-0.071869	-0.002747	0.014496
35.873	0.008698	0.069275	-0.11643	0.01236	0.025787	0.14877	0.11002	0.011902	-0.09613	-0.020447	-0.075378	-0.010529	-0.14343	-0.10376	0.1738	0.010071	0.027313	-0.099792	-0.45654	0.013733	-0.2092	0.017395	-0.044556	0.044403	0.032959	-0.054016	0.17548	-0.010071	0.061035	-0.081482	0.001984	0.00824
35.874	-0.011292	0.11169	-0.085144	0.005188	0.010376	-0.18219	0.11505	0.020752	-0.11353	-0.072632	-0.10162	-0.001831	0.024261	-0.041962	0.25284	-0.002441	0.037994	-0.093842	0.034485	-0.018616	-0.18402	-0.003052	-0.037842	-0.00946	0.019989	-0.083008	-0.094604	-0.007782	0.009308	-0.043182	0.001373	0.004272
35.875	0.002289	0.11704	-0.13901	0.022278	0.003357	-0.39978	0.14984	0.020599	-0.11169	-0.091858	-0.078125	-0.00473	-0.088959	-0.10727	0.12558	-0.00061	0.028992	-0.069427	0.066528	-0.011902	-0.048065	0.019226	-0.048828	-0.00412	0.050812	-0.0914	-0.016022	-0.005493	-0.024567	0.006409	-0.001526	0.003967
35.876	0.000305	0.12619	-0.18784	0.023956	0.022583	-0.36301	0.19608	0.020599	-0.1564	0.069733	-0.042267	-0.012207	-0.058594	-0.036011	0.1326	0.005035	0.009918	-0.10346	-0.046844	-0.007324	0.074615	0.12161	-0.063171	0.042419	0.037231	-0.093994	0.035706	-0.008087	0.022583	-0.066376	-0.003357	0.007629
35.877	0.015869	0.17487	-0.21332	0.018768	0.06134	-0.25024	0.20142	0.017853	-0.11612	0.14282	0.01297	-0.010223	-0.053864	0.03067	0.12512	0.000916	0.037689	-0.097046	-0.091248	-0.032806	-0.038452	0.13214	-0.032349	-0.038757	0.032349	-0.10101	0.012054	-0.005951	0.027618	-0.090637	-0.001831	0.004578
35.878	0.019226	0.19424	-0.10483	-0.025482	0.061493	-0.094147	0.19867	0.02182	-0.13046	0.28198	0.035095	-0.00824	0.021515	-0.12573	0.085449	0.004425	0.055542	-0.048828	-0.32486	-0.009766	-0.11002	0.21378	-0.003967	-0.092316	0.012512	-0.096436	-0.005035	-0.003357	0.002594	-0.073853	-0.002747	0.001373
35.879	0.014191	0.2153	-0.1207	-0.0383	0.045319	0.021362	0.1326	0.00473	-0.13794	0.14404	0.014954	0.003204	0.032196	-0.62759	0.11627	-0.006866	0.010376	-0.045013	-0.50217	0.041656	-0.11795	0.15625	-0.070801	0.041046	0.038147	-0.090179	0.019836	-0.007782	0.001373	-0.075836	-0.002441	-0.008698
35.88	0.009918	0.19714	-0.18677	-0.02594	0.061951	0.096741	0.15045	0.011597	-0.17609	0.30518	0.024567	-0.007324	0.10651	-0.82535	0.075531	0.012817	-0.049591	-0.031281	-0.18601	0.035095	-0.000916	0.076141	-0.096436	0.053864	0.053101	-0.10056	0.0383	-0.005798	0.022736	-0.016632	0.001526	-0.001373
35.881	0.00946	0.21439	-0.17731	0.004272	0.011444	0.0914	0.03418	0.02182	-0.14099	0.38528	0.027924	0.011902	0.032501	-0.89554	-0.000458	0.003815	-0.06897	0.007324	-0.12482	0.026855	0.001221	-0.007477	-0.11337	0.03952	0.053864	-0.10788	0.033264	-0.001373	0.05188	-0.008698	-0.002899	0.001221
35.882	0.011139	0.20783	-0.18601	-0.005035	-0.030823	0.11108	0.067291	0.021515	-0.10162	0.30853	0.043793	0.00885	0.010071	-0.47836	-0.078278	0.012665	-0.04364	-0.010834	-0.24719	0.073242	-0.015106	-0.032654	-0.08606	0.00885	0.061646	-0.10971	0.014954	-0.006256	0.072784	0.027771	-0.000305	-0.001373
35.883	0.010529	0.1619	-0.10559	-0.014648	-0.035706	0.064392	0.19608	0.022736	-0.023193	0.27618	0.031281	0.010529	0.046692	0.23636	-0.033875	0.006409	-0.018311	-0.035095	-0.35111	0.047302	-0.042572	0.052643	-0.089722	0.028839	0.050049	-0.10666	0.024872	-0.006256	0.036621	0.028229	-0.003815	-0.005493
35.884	0.011292	0.15045	-0.10407	-0.010376	-0.014343	0.090179	0.22537	0.027618	-0.009918	-0.23697	-0.024109	0.014801	-0.03418	0.59357	0.025177	0.007782	0.000763	-0.039825	-0.43304	0.029449	-0.05661	0.005646	-0.037079	0.016174	0.036621	-0.10269	0.042419	0.000458	0.005798	-0.000458	0.001373	-0.001221
35.885	0.016022	0.12177	-0.014343	0.017242	0.087891	0.059052	0.009918	0.040131	-0.045471	-0.48584	-0.054626	0.011902	0.35339	0.60928	0.016022	0.004578	0.009155	-0.11368	-0.58762	0.019531	-0.095215	0.014038	-0.035095	-0.007172	0.030518	-0.085754	0.051575	0.000153	-0.010834	-0.02594	0.000305	0.010376
35.886	0.014496	0.13473	-0.018311	0.006409	0.039978	0.035858	-0.065002	0.031586	-0.028381	-0.3006	-0.006866	-0.001831	0.38711	0.62347	0.0383	-0.002441	0.014648	-0.088501	-0.80673	0.023193	-0.061646	0.09903	-0.009155	0.008087	0.023651	-0.081482	0.065308	-0.000763	-0.087585	-0.025177	0.000305	0.00351
35.887	0.019226	0.1767	-0.050507	0.000763	0.019073	0.019379	-0.047607	0.028076	-0.15747	-0.17578	0.078888	0.004883	0.1001	0.49149	-0.084534	-0.004272	-0.001221	-0.013885	-0.78156	0.03067	-0.019379	0.080109	-0.050812	0.12665	0.031738	-0.070038	0.063934	-0.003662	-0.063477	-0.032349	0.009308	0.007019
35.888	0.014954	0.17639	-0.17532	0.012207	0.057983	0.077209	-0.056	0.02182	-0.15686	-0.15488	0.19531	0.00473	-0.27054	0.27039	-0.077515	-0.008698	-0.014496	-0.02655	-0.63767	-0.012207	0.07431	0.1033	-0.05722	0.13565	0.036469	-0.085297	0.066376	-0.007935	-0.041656	-0.058594	-0.002747	0.000916
35.889	0.003204	0.12253	-0.22247	0.019379	0.009003	0.1503	0.064392	-0.007019	-0.081635	-0.081177	0.29037	-0.001373	-0.38864	0.25284	0.35782	-0.001831	-0.004578	-0.055084	-0.29022	0.005035	0.055237	0.073853	-0.007477	0.12711	0.023193	-0.097046	0.069122	-0.011292	-0.050659	-0.061035	-0.000916	-0.00351
35.89	-0.003815	0.1004	-0.31433	-0.002441	-0.071106	0.11749	0.15152	0.002594	-0.093689	-0.056458	0.12741	0.001831	-0.46768	0.20218	0.033722	-0.002594	0.010986	-0.076599	-0.33493	0.085449	-0.07782	0.057983	-0.023346	0.046082	0.026093	-0.089722	0.074768	-0.003815	-0.036621	-0.065918	-0.003815	-0.000305
